<svg width="44" height="45" viewBox="0 0 44 45" fill="none" xmlns="http://www.w3.org/2000/svg">
<g filter="url(#filter0_d_697_2716)">
<path d="M16.3021 10.8162C14.4566 13.5086 13.9218 17.0331 15.18 20.3109L15.3942 20.8689C17.4269 26.1643 23.3677 28.8093 28.6631 26.7766C29.0992 26.6092 29.5157 26.4125 29.9147 26.1947C28.7788 27.8514 27.148 29.194 25.1309 29.9683C19.8355 32.001 13.8947 29.356 11.862 24.0606L11.6478 23.5026C9.7828 18.6438 11.857 13.2442 16.3021 10.8162Z" fill="#FFD914"/>
<path d="M22 16L22.6735 18.0729L24.8532 18.0729L23.0898 19.3541L23.7634 21.4271L22 20.1459L20.2366 21.4271L20.9102 19.3541L19.1468 18.0729L21.3265 18.0729L22 16Z" fill="#FFD914"/>
</g>
<defs>
<filter id="filter0_d_697_2716" x="0.963135" y="0.816162" width="42.9515" height="43.8369" filterUnits="userSpaceOnUse" color-interpolation-filters="sRGB">
<feFlood flood-opacity="0" result="BackgroundImageFix"/>
<feColorMatrix in="SourceAlpha" type="matrix" values="0 0 0 0 0 0 0 0 0 0 0 0 0 0 0 0 0 0 127 0" result="hardAlpha"/>
<feOffset dx="2" dy="2"/>
<feGaussianBlur stdDeviation="6"/>
<feComposite in2="hardAlpha" operator="out"/>
<feColorMatrix type="matrix" values="0 0 0 0 1 0 0 0 0 1 0 0 0 0 1 0 0 0 0.25 0"/>
<feBlend mode="normal" in2="BackgroundImageFix" result="effect1_dropShadow_697_2716"/>
<feBlend mode="normal" in="SourceGraphic" in2="effect1_dropShadow_697_2716" result="shape"/>
</filter>
</defs>
</svg>
